<?xml version="1.0" encoding="utf-8"?>
<!-- Generator: Adobe Illustrator 25.2.3, SVG Export Plug-In . SVG Version: 6.00 Build 0)  -->
<svg version="1.1" id="Capa_1" xmlns="http://www.w3.org/2000/svg" xmlns:xlink="http://www.w3.org/1999/xlink" x="0px" y="0px"
	 viewBox="0 0 500 206.76" style="enable-background:new 0 0 500 206.76;" xml:space="preserve">
<style type="text/css">
	.st0{fill:#FFB600;}
	.st1{fill:#DA0201;}
	.st2{fill:#003894;}
	.st3{fill:#8D1912;}
	.st4{fill:#051829;}
	.st5{opacity:0.37;fill:#0F223D;}
	.st6{opacity:0.38;fill:#0070B8;}
	.st7{fill:#B50000;}
	.st8{fill:#53110E;}
	.st9{fill:#D8423F;}
	.st10{fill:#008C00;}
	.st11{fill:#B5BA00;}
	.st12{fill:#EEF2E7;}
</style>
<g>
	<circle class="st0" cx="97.64" cy="98.33" r="91.85"/>
	<g>
		<g>
			<path class="st1" d="M109.05,168.11c0.18-0.04,0.25,0.26,0.23,0.95c-0.19,5.93-4.1,15.7,1.13,14.64c0.49-0.1,1.07-0.3,1.73-0.6
				c45.68-20.88,35.99-62.12,36.9-62.3c0.08-0.02,0.24,0.29,0.54,0.96c2.43,5.56-30.98-8.74-29.17-9.11
				c0.87-0.18,17.03-6.15,19.05-10.75c15.63-35.55,15.56-25.77,17.57-26.18c0.29-0.06,1.03,0.2,2.37,0.78
				c8.11,3.46-44.62,6.14-43,5.81c0.49-0.1,0.47-1.42-0.18-4.6c-2.79-13.69,43.38-7.3,40.76-12.06c-0.73-1.32-19.57-4.37-18.83-4.52
				c1.93-0.39,12.06,20.27-6.87-2.29L44.9,78.16"/>
			<path class="st1" d="M109.05,168.11c-1.49,0.3-10.35,23.78-33.05,33.29c-0.18,0.08-0.36,0.13-0.55,0.17
				c-5.22,1.06-11.59-13.32-12.83-36.77c-0.06-0.94,0.08-1.39,0.07-1.39c-0.01,0-1.12,3.67-10.78,9.76
				c-0.23,0.14-0.45,0.24-0.66,0.28c-2.34,0.48-3.81-5.46-3.15-27.1c-3.1,5.14-6.05,10.02-8.81,10.58
				c-2.03,0.41-3.95-1.51-5.74-7.39c-7.25-23.87,0.81-37.2-1.82-36.66c-0.3,0.06-0.75,0.31-1.38,0.75
				c-2.91,2.03-5.11,3.44-5.99,3.62c-0.94,0.19-0.35-1.04,2.53-4.46C43.18,93.51,45.92,77.95,44.9,78.16
				c-0.12,0.02-0.29,0.27-0.5,0.74"/>
		</g>
		<path class="st2" d="M160.39,52.76c-0.04,0-0.06,0.04-0.06,0.13c0,0.01,0,0.03,0,0.04c0.03,0.45,0.05,0.9,0.05,1.33
			c0,4.07-1.4,7-1.4,7c-3.82-15.3-15.28-23.67-17.17-23.67c-0.17,0-0.27,0.07-0.27,0.21c0,0.21,0.21,0.58,0.66,1.1
			c4.09,4.76,5.45,9.75,5.45,9.75s-25.66-24.64-61.05-12.67c-28.58,9.66-36.5,40.11-36.57,40.29c-4.17,11.98-5.01,21.79-3.32,29.84
			c-2.09,13.94,1.05,31.57,3.02,33.15c2.39,1.93,10.62-3.42,11.1-3.72c-0.15,0.49-1.97,6.46,2.15,6.79
			c3.52,0.29,9.26-5.76,11.21-7.95c0.16,0.07,0.32,0.14,0.49,0.22c-0.48,2.88-1.53,11.19,2.28,13.55c3.87,2.41,9.17-6.01,10.79-8.83
			c0.3,0.09,0.6,0.17,0.9,0.25c0.99,2.63,3.73,8.91,7.48,9.08c3.16,0.14,5.18-3.7,6.19-6.28c0.44,0.06,0.88,0.11,1.32,0.16
			c0.89,3.24,2.85,8.6,6.13,8.75c1.28,0.06,2.22-0.62,2.94-1.69c1.27-1.85,1.78-4.8,1.98-6.61c0.25-0.01,0.5-0.02,0.75-0.03
			c1.07,2.41,3.44,6.79,6.44,6.6c4.12-0.26,5.01-7.89,5.01-7.89s2.37,7.74,6.59,6.63c3.31-0.88,3.53-7.44,3.47-10.27
			c0.35-0.16,0.71-0.32,1.06-0.49c1.48,0.94,4.18,2.18,6.57,0.76c0.9-0.53,1.18-1.4,1.07-2.5c-0.06-0.7-0.29-1.5-0.61-2.34
			c0.63-0.43,1.25-0.88,1.87-1.35l-1.67-33.46c0-0.25-0.02-0.51-0.04-0.79c-0.17-2.08-0.45-5.04-0.45-8.02
			c0-5.29,0.87-10.66,4.75-11.34c0.73-0.13,1.4-0.18,2.03-0.18c0,0,0,0,0,0c0,0,0,0,0,0c4.59,0,5.34,4.78,5.34,4.78
			c6.01-1,9.16-7.13,9.17-12.16C166.07,62.73,161,52.76,160.39,52.76z"/>
		<path class="st3" d="M82.47,183.13c-0.27,1.07-0.61,2.1-1.03,3.09c-0.42,0.99-0.89,1.95-1.46,2.84c-0.27,0.45-0.58,0.87-0.91,1.28
			c-0.15,0.21-0.34,0.4-0.5,0.6c-0.18,0.19-0.35,0.4-0.53,0.57c-0.38,0.36-0.76,0.7-1.19,1c-0.39,0.34-0.86,0.56-1.3,0.84l0.81,0.67
			c0.1-0.39,0.16-0.74,0.21-1.1c0.06-0.36,0.1-0.73,0.13-1.1c0.06-0.36,0.05-0.73,0.05-1.1c0.01-0.36,0.02-0.73,0-1.09
			c-0.04-0.73-0.1-1.46-0.24-2.17c-0.11-0.72-0.33-1.41-0.53-2.09c-0.01,0.72,0.1,1.43,0.07,2.14c-0.03,0.7-0.02,1.41-0.1,2.1
			c-0.03,0.69-0.14,1.39-0.24,2.08c-0.06,0.34-0.11,0.68-0.19,1.02c-0.07,0.33-0.16,0.67-0.24,0.98l-0.02,0.06
			c-0.07,0.3,0.1,0.59,0.4,0.67c0.15,0.04,0.3,0.02,0.43-0.07c0.49-0.3,1.02-0.53,1.47-0.9c0.22-0.18,0.46-0.34,0.69-0.52l0.62-0.6
			c0.22-0.19,0.39-0.42,0.58-0.63c0.18-0.22,0.39-0.43,0.54-0.67c0.33-0.47,0.64-0.94,0.9-1.44c0.14-0.25,0.25-0.51,0.37-0.77
			c0.12-0.25,0.23-0.51,0.33-0.78c0.21-0.52,0.36-1.06,0.51-1.6c0.14-0.54,0.22-1.09,0.3-1.64
			C82.44,184.24,82.49,183.68,82.47,183.13"/>
		<path class="st3" d="M69.36,165.43c0.14,1.64,0.57,3.19,1.31,4.56c0.35,0.68,0.79,1.32,1.29,1.89c0.24,0.3,0.53,0.56,0.8,0.83
			c0.28,0.26,0.6,0.49,0.89,0.74l-0.92,0.42c0.07-0.68,0.18-1.32,0.34-1.97c0.08-0.32,0.14-0.65,0.25-0.96l0.31-0.95
			c0.26-0.62,0.5-1.23,0.85-1.8c0.18-0.28,0.31-0.59,0.55-0.83c0.21-0.26,0.43-0.5,0.64-0.74c-0.13,0.31-0.26,0.61-0.4,0.89
			c-0.15,0.28-0.22,0.61-0.33,0.9c-0.09,0.3-0.2,0.59-0.26,0.91l-0.23,0.92c-0.26,1.23-0.45,2.5-0.57,3.73v0.04
			c-0.04,0.31-0.32,0.53-0.62,0.51c-0.12-0.01-0.22-0.05-0.3-0.13c-0.34-0.27-0.7-0.51-1.01-0.82c-0.3-0.31-0.62-0.6-0.87-0.95
			c-0.29-0.33-0.52-0.7-0.74-1.07c-0.12-0.18-0.21-0.38-0.31-0.57c-0.1-0.19-0.2-0.38-0.26-0.59c-0.32-0.8-0.53-1.64-0.59-2.48
			C69.1,167.08,69.14,166.23,69.36,165.43L69.36,165.43z"/>
		<path class="st3" d="M99.51,173.33c-0.22,0.43-0.45,0.85-0.69,1.26c-0.24,0.41-0.52,0.81-0.79,1.18
			c-0.28,0.39-0.57,0.75-0.88,1.11c-0.3,0.35-0.62,0.68-0.96,0.99c-0.34,0.32-0.68,0.61-1.05,0.88c-0.17,0.14-0.37,0.24-0.56,0.37
			c-0.19,0.13-0.38,0.25-0.58,0.35l-0.6,0.3L92.76,180c-0.42,0.18-0.86,0.25-1.29,0.38l0.62,0.87c0.2-0.39,0.37-0.75,0.5-1.14
			c0.15-0.38,0.25-0.76,0.34-1.15c0.1-0.39,0.19-0.78,0.22-1.19c0.03-0.41,0.12-0.8,0.08-1.21c-0.01-0.4-0.03-0.8-0.05-1.2
			c-0.08-0.39-0.16-0.79-0.26-1.17c-0.05-0.19-0.08-0.39-0.15-0.57l-0.25-0.54c-0.15-0.36-0.33-0.71-0.51-1.06
			c0.07,0.39,0.15,0.78,0.24,1.14l0.13,0.55c0.03,0.18,0.01,0.38,0.03,0.56c0.01,0.38,0.04,0.74,0.06,1.12l-0.1,1.11
			c0,0.37-0.12,0.72-0.19,1.08c-0.06,0.36-0.15,0.72-0.27,1.07c-0.1,0.35-0.23,0.7-0.37,1.03c-0.13,0.34-0.3,0.69-0.45,0.97
			l-0.04,0.06c-0.14,0.27-0.04,0.61,0.24,0.76c0.12,0.06,0.28,0.08,0.41,0.04c0.49-0.13,1.01-0.2,1.48-0.41l0.71-0.28l0.67-0.37
			c0.23-0.11,0.45-0.25,0.65-0.4c0.21-0.16,0.42-0.29,0.61-0.46c0.39-0.33,0.77-0.67,1.09-1.05c0.34-0.37,0.65-0.77,0.93-1.18
			c0.28-0.41,0.53-0.85,0.74-1.28C98.98,175.21,99.35,174.28,99.51,173.33L99.51,173.33z"/>
		<path class="st3" d="M119.89,171.95c-0.21,0.27-0.41,0.53-0.64,0.77c-0.21,0.26-0.44,0.49-0.68,0.72
			c-0.22,0.24-0.47,0.45-0.73,0.65c-0.24,0.19-0.47,0.42-0.76,0.58l-0.78,0.52c-0.29,0.12-0.57,0.26-0.86,0.41
			c-0.26,0.16-0.57,0.24-0.87,0.32l-0.89,0.29l0.67,0.73c0.15-0.55,0.18-1.06,0.26-1.6c0.06-0.53,0.03-1.06,0.03-1.59
			c0.02-0.53-0.08-1.05-0.16-1.57c-0.09-0.52-0.2-1.04-0.32-1.53c-0.09,0.52-0.14,1.04-0.2,1.55c-0.02,0.26-0.04,0.51-0.06,0.77
			c0,0.25-0.08,0.5-0.1,0.75l-0.12,0.75c-0.05,0.24-0.04,0.49-0.11,0.74c-0.12,0.48-0.2,0.99-0.33,1.42l-0.02,0.05
			c-0.09,0.3,0.08,0.6,0.37,0.69c0.11,0.02,0.22,0.03,0.31,0l1.04-0.3c0.34-0.1,0.69-0.21,0.99-0.4c0.32-0.16,0.63-0.34,0.94-0.52
			c0.28-0.22,0.55-0.44,0.82-0.68c0.28-0.22,0.49-0.5,0.73-0.77c0.24-0.25,0.44-0.55,0.62-0.85
			C119.44,173.26,119.73,172.6,119.89,171.95L119.89,171.95z"/>
		<path class="st3" d="M53.4,160.68c-0.14,0.7-0.29,1.37-0.36,2.05c-0.05,0.34-0.09,0.68-0.09,1.02c0,0.33-0.07,0.67-0.03,1
			l0.04,0.98c-0.01,0.17,0.05,0.32,0.07,0.48l0.08,0.49l0.07,0.47l0.17,0.45c0.11,0.31,0.2,0.61,0.29,0.93l-1.09,0.1
			c0.05-0.15,0.11-0.34,0.18-0.48l0.23-0.38l0.24-0.37c0.08-0.12,0.15-0.26,0.25-0.35c0.38-0.43,0.77-0.83,1.17-1.22
			c0.18-0.22,0.43-0.35,0.66-0.51c0.22-0.16,0.44-0.32,0.68-0.46c0.46-0.31,0.92-0.6,1.39-0.86c-0.34,0.44-0.69,0.85-1.05,1.24
			c-0.17,0.2-0.36,0.4-0.54,0.59c-0.18,0.19-0.38,0.37-0.52,0.6c-0.3,0.42-0.6,0.84-0.92,1.24c-0.09,0.1-0.13,0.21-0.18,0.32
			l-0.18,0.33l-0.18,0.32l-0.11,0.27l-0.05,0.12c-0.11,0.28-0.43,0.43-0.72,0.32c-0.16-0.06-0.27-0.19-0.32-0.34l-0.38-1.06
			l-0.16-0.53l-0.07-0.56l-0.07-0.55c-0.01-0.18-0.06-0.37-0.04-0.55l0.06-1.1c0.03-0.36,0.14-0.72,0.21-1.07
			c0.06-0.36,0.19-0.69,0.31-1.03C52.66,161.91,52.99,161.25,53.4,160.68L53.4,160.68z"/>
		<path class="st4" d="M138.96,90.05c0,0-1.95-12.18,0.84-18.25c2.79-6.07,12.96-8.33,15.86,7.71c0,0-5.31-9.81-8.8-7.6
			c-3.5,2.21-5.18,18.52-5.18,18.52L138.96,90.05z"/>
		<path class="st5" d="M76.48,40.94c0.15,1.53-0.29,3.14-0.86,4.75"/>
		<path class="st6" d="M132.84,129.93c0,0-1.3,7.86,0.65,18.36c0,0,3.77-0.28,3.37-10.36l1.11-0.4c0,0,3.67,2.65,6.62,0.77
			c0,0,2.15-0.57,0.43-5.31L132.84,129.93z"/>
		<g>
			<g>
				<g>
					<path class="st7" d="M127.92,104.32c2.15-7.49,5.93-7.48,7.81-7.46c0.45,0,0.8,0.01,0.98-0.09
						c-1.28,2.91-1.68,10.46,5.28,13.57c6.96,3.12,3.95,8.5,8.59,12.1c4.48,3.48,11.25,4.07,11.71,4.1
						c-0.42-0.03-3.73-0.14-8.85,3.11c-5.48,3.49-6.6,3.19-6.6,3.19s-8.87,2.5-14.1-2.94C127.52,124.47,125.26,113.6,127.92,104.32"
						/>
				</g>
				<path class="st8" d="M142,110.25c-6.96-3.11-6.56-10.67-5.28-13.57c-0.52,5.63,4.61,2.94,9.94,3.01
					c5.33,0.08,1.94,9.19,4.9,9.93c2.96,0.73,5.03,1.06,5.03,1.06s0.8,11.53,5.75,15.76l-0.04,0c-0.47-0.03-7.24-0.62-11.71-4.1
					C145.95,118.75,148.95,113.37,142,110.25"/>
			</g>
		</g>
		<path class="st1" d="M138.14,91.23c2.45-3.83,4.28-6.54,4.13-8.01c-0.36-3.55-1.32-11.25,3.22-11.9c4.52-0.65,6.46,1.73,6.46,1.73
			c0.84,0.98,1.94,2.53,2.96,4.84c0.38,0.87,0.98,1.82,1.65,2.77c1.88,2.65,4.22,4.93,6.77,6.95c3.67,2.9,11.09,11.02,11.76,29.52
			c0,0,1.29,14.46-11.88,22.21c0,0,5.04-17.69-1.81-24.28l-3.69,0.06c-3.11,0.05-6.05-1.43-7.87-3.96l-4.06-5.64
			c-1.48-2.06-3.78-3.38-6.31-3.62h0c-3.68-1.79-2.76-5.14-2.76-5.14"/>
		<path class="st9" d="M172.26,127.22c0,0,5.32-16.04-3.51-31.06c-6.56-11.19-12.29-13.58-12.29-13.58S173.86,99.11,172.26,127.22"
			/>
		<path class="st7" d="M142.21,133.44C142.21,133.44,142.21,133.44,142.21,133.44c2.69,0,4.72-0.57,4.72-0.57l0,0
			c0,0,0.02,0.01,0.08,0.01c0.21,0,0.87-0.08,2.47-0.87c-0.62,0.06-1.3,0.09-2.02,0.09c-4.46,0-10.55-1.39-14.83-7.79
			c-5.74-8.61-2.61-19.37,0-19.37c0.8,0,1.56,1.02,1.99,3.43c1.06,5.94,7.42,5.48,10.56,12.78c1.96,4.58,6.81,5.99,11.67,6.75
			c1.9-0.84,3.37-1.15,4.32-1.27c0.41-0.05,0.73-0.06,0.94-0.06c0.11,0,0.19,0,0.24,0.01c-0.62-0.04-7.27-0.66-11.69-4.1
			c-3.93-3.05-2.37-7.39-6.05-10.54c-0.66-0.56-1.48-1.09-2.54-1.56c-4.67-2.09-6.03-6.18-6.03-9.52l0,0c0-1.64,0.33-3.1,0.75-4.06
			c0,0,0,0,0,0c-0.15,0.08-0.4,0.09-0.73,0.09c0,0,0,0-0.01,0l0,0l0,0c0,0,0,0,0,0c-0.03,0-0.06,0-0.1,0c-0.05,0-0.1,0-0.15,0l0,0
			l0,0c-0.02,0-0.04,0-0.06,0c-0.07,0-0.14,0-0.21,0c0,0,0,0,0,0h0c-0.4,0-0.87,0.01-1.37,0.1c0.08-0.01,0.12-0.01,0.12-0.01
			s-0.6,0.46-1.65,0.87c-0.26,0.12-0.56,0.2-0.87,0.29c-0.11,0.03-0.23,0.07-0.34,0.1c-1.25,1.03-2.47,2.85-3.4,6.05
			c-0.01,0.03-0.01,0.05-0.02,0.08c-0.76,2.67-1.12,5.46-1.12,8.22c0,0.89,0.04,1.77,0.11,2.64c0.2,1.11,0.31,2.05,0.41,2.7
			c0.08,0.58,0.12,0.95,0.13,1.02c0.91,4.42,2.76,8.35,5.31,10.99c0.01,0.01,0.02,0.02,0.04,0.04
			C135.59,132.77,139.28,133.44,142.21,133.44C142.2,133.44,142.2,133.44,142.21,133.44"/>
		<path class="st9" d="M147.18,129.59c0.82,0,1.68-0.05,2.59-0.14c-0.18,0.01-0.38,0.02-0.57,0.02c-4.97,0-13.82-4.51-16.99-14.32
			c-0.17-0.53-0.33-0.77-0.45-0.77c-0.49,0-0.38,3.8,1.72,7.6C135.58,125.79,139.68,129.59,147.18,129.59"/>
		<path class="st10" d="M60.45,58.23c-1.2,2.11-2.1,3.86-2.73,5.08c-0.5,0.97-1.15,2.24-1.89,3.72c-2.87,5.61-7.13,14.25-9.58,21.18
			c-7.37,9.86-10.25,25.56-9.04,28.59c0.17,0.43,0.42,0.6,0.76,0.47c0.26-0.11,0.58-0.41,0.95-0.93c2.12-3.03,4.29-5.64,5.96-7.54
			c3.27-3.16,6.62-7.46,7.01-7.59c0-0.02,13.19-8.91,19.36-35.4C71.96,62.73,63.06,67.85,60.45,58.23z"/>
		<path class="st5" d="M91.9,114.51c-0.75,0.03-1.52,0.09-2.27,0.24c-0.76,0.12-1.5,0.28-2.25,0.47c-0.75,0.18-1.49,0.41-2.21,0.7
			c-0.71,0.28-1.46,0.52-2.13,0.89c-0.69,0.36-1.39,0.7-2.07,1.08c-0.65,0.44-1.27,0.89-1.92,1.35c-0.32,0.23-0.64,0.45-0.94,0.69
			l-0.84,0.84l-1.67,1.67l1.51,0.51c0.01-0.63,0.08-1.4,0.22-2.11c0.07-0.73,0.35-1.44,0.51-2.15c0.19-0.73,0.51-1.41,0.75-2.11
			c0.23-0.73,0.64-1.35,0.95-2.03l0.51-1.01c0.15-0.35,0.41-0.65,0.6-0.97l1.24-1.92c0.4-0.67,0.94-1.2,1.4-1.82
			c0.49-0.59,0.96-1.2,1.44-1.83c-0.6,0.49-1.19,0.99-1.78,1.52c-0.57,0.53-1.22,1-1.72,1.6l-1.52,1.81
			c-0.25,0.31-0.53,0.6-0.72,0.95l-0.62,1.01c-0.41,0.69-0.88,1.34-1.16,2.09c-0.3,0.75-0.69,1.44-0.92,2.22
			c-0.21,0.78-0.51,1.53-0.62,2.34c-0.06,0.4-0.16,0.8-0.19,1.21c-0.03,0.42-0.1,0.81-0.07,1.29c0.02,0.47,0.42,0.85,0.89,0.82
			c0.23-0.01,0.43-0.11,0.59-0.25l0.03-0.06l1.51-1.55l0.76-0.79l0.86-0.68c0.57-0.44,1.14-0.91,1.72-1.35
			c0.63-0.37,1.25-0.78,1.87-1.16c0.61-0.44,1.31-0.69,1.96-1.06c0.66-0.36,1.32-0.66,2.02-0.93c0.68-0.33,1.38-0.59,2.08-0.82
			C90.45,114.93,91.16,114.72,91.9,114.51L91.9,114.51z"/>
		<path class="st5" d="M73.73,103.22c-1.88-0.3-3.83-0.12-5.7,0.42c-0.95,0.25-1.85,0.65-2.73,1.13c-0.88,0.46-1.65,1.11-2.38,1.79
			l1.42,0.42c0-0.16-0.03-0.43-0.02-0.66c-0.01-0.24,0.01-0.49,0.02-0.73c0.04-0.49,0.16-0.98,0.3-1.47
			c0.16-0.48,0.31-0.95,0.56-1.42c0.21-0.47,0.49-0.91,0.77-1.35c0.29-0.44,0.6-0.86,0.97-1.26c0.31-0.45,0.73-0.79,1.1-1.2
			c0.38-0.37,0.8-0.74,1.21-1.12c0.43-0.35,0.86-0.71,1.29-1.07c-0.52,0.19-1.04,0.42-1.58,0.64c-0.48,0.27-0.99,0.55-1.48,0.85
			c-0.46,0.35-0.96,0.63-1.38,1.04c-0.44,0.38-0.85,0.79-1.24,1.25c-0.38,0.44-0.73,0.93-1.03,1.46c-0.31,0.52-0.57,1.06-0.77,1.64
			c-0.19,0.57-0.33,1.17-0.4,1.78c-0.04,0.31-0.06,0.63-0.06,0.93c0.01,0.34,0.02,0.61,0.11,1.01c0.08,0.46,0.52,0.76,0.98,0.66
			c0.16-0.03,0.31-0.1,0.43-0.21l0.03-0.04c0.6-0.59,1.27-1.15,2-1.64c0.36-0.25,0.73-0.47,1.13-0.68c0.39-0.21,0.78-0.41,1.19-0.59
			C70.1,104.12,71.87,103.59,73.73,103.22L73.73,103.22z"/>
		<path class="st5" d="M67.41,110.78c-0.33,0.14-0.63,0.35-0.96,0.53l-0.86,0.69c-0.3,0.22-0.52,0.5-0.81,0.76
			c-0.25,0.27-0.52,0.52-0.76,0.8l-1.32,1.78c-0.38,0.63-0.73,1.29-1.1,1.93c-0.16,0.32-0.36,0.64-0.49,0.98l-0.42,1.03
			c-0.28,0.68-0.53,1.37-0.79,2.06c-0.4,1.41-0.76,2.83-1.09,4.25c-0.11,0.45,0.16,0.9,0.61,1.02c0.29,0.06,0.58-0.03,0.77-0.22
			l0.03-0.03c0.33-0.33,0.73-0.68,1.12-1.01c0.38-0.37,0.8-0.68,1.21-0.99c0.39-0.33,0.82-0.63,1.25-0.94
			c0.42-0.3,0.84-0.62,1.29-0.88l1.32-0.84c0.46-0.25,0.93-0.48,1.37-0.76c0.46-0.28,0.94-0.49,1.43-0.69
			c0.49-0.21,0.97-0.44,1.45-0.67c-1.05,0.19-2.14,0.33-3.16,0.69c-0.52,0.16-1.03,0.34-1.55,0.52l-1.48,0.68
			c-0.51,0.21-0.97,0.5-1.45,0.77c-0.48,0.26-0.94,0.56-1.39,0.88c-0.45,0.31-0.91,0.61-1.34,0.97c-0.44,0.32-0.84,0.69-1.28,1.09
			l1.42,0.76c0.38-1.37,0.72-2.74,1.05-4.1c0.24-0.67,0.48-1.32,0.69-1.99l0.32-1.01c0.1-0.33,0.29-0.64,0.41-0.96
			c0.29-0.64,0.55-1.29,0.84-1.93l1.01-1.85l0.58-0.87c0.2-0.29,0.37-0.62,0.61-0.88C66.4,111.81,66.86,111.26,67.41,110.78
			L67.41,110.78z"/>
		<path class="st11" d="M71.66,59.59c-0.53-8.06,3.25-14.21,4.82-18.65c-0.17,0.17-10.97,3.76-26.33,29.51
			c-2.8,4.7-4.84,8.52-6.35,11.64c-4.12,7.57-6.34,13.05-6.17,14.27c0.04,0.29,0.19,0.42,0.44,0.39c0.19-0.03,0.44-0.14,0.76-0.36
			c4-2.8,9.14-5.63,13.03-6.35c4.13-0.76,5.78-0.83,11.81-9.39C68.08,75.24,72.22,68.14,71.66,59.59z"/>
		<g>
			<path class="st12" d="M118.01,76.67c0,4.95-4.01,8.95-8.95,8.95c-4.94,0-8.95-4.01-8.95-8.95c0-4.94,4.01-8.95,8.95-8.95
				C114,67.72,118.01,71.73,118.01,76.67z"/>
			<path class="st12" d="M119.43,76.67c0,5.73-4.65,10.38-10.38,10.38c-5.73,0-10.38-4.65-10.38-10.38
				c0-5.73,4.65-10.38,10.38-10.38C114.79,66.29,119.43,70.94,119.43,76.67z"/>
			<path class="st4" d="M115.68,76.67c0,3.66-2.97,6.63-6.63,6.63c-3.66,0-6.63-2.97-6.63-6.63c0-3.66,2.97-6.63,6.63-6.63
				C112.71,70.04,115.68,73.01,115.68,76.67z"/>
			<path class="st12" d="M112.19,74.81c0,1.03-0.83,1.86-1.86,1.86c-1.03,0-1.86-0.83-1.86-1.86c0-1.03,0.83-1.86,1.86-1.86
				C111.36,72.95,112.19,73.78,112.19,74.81z"/>
		</g>
	</g>
	<g>
		<path class="st2" d="M239.34,110.69c2.01,0,3.53,1.6,3.53,3.53v9.39c0,2.01-1.52,3.61-3.53,3.61h-31.85
			c-1.93,0-3.53-1.6-3.53-3.61V74.59c0-1.93,1.6-3.53,3.53-3.53h10.91c2.01,0,3.53,1.6,3.53,3.53v36.1H239.34z"/>
		<path class="st2" d="M304.08,99.14c0,16.61-12.76,29.12-29.6,29.12c-16.85,0-29.6-12.52-29.6-29.12
			c0-16.53,12.75-29.04,29.6-29.04C291.32,70.1,304.08,82.61,304.08,99.14z M286.03,99.14c0-6.74-4.89-11.55-11.55-11.55
			c-6.66,0-11.55,4.81-11.55,11.55c0,6.82,4.89,11.55,11.55,11.55C281.13,110.69,286.03,105.96,286.03,99.14z"/>
		<path class="st2" d="M340.98,125.21l-7.78-15.4h-5.05v13.8c0,2.01-1.6,3.61-3.53,3.61H313.7c-2,0-3.61-1.6-3.61-3.61V74.59
			c0-1.93,1.6-3.53,3.61-3.53h20.14c15.56,0,23.75,7.14,23.75,20.14c0,7.14-2.89,12.03-7.94,15.08l10.11,17.73
			c0.8,1.44-0.24,3.21-1.84,3.21h-13.72C342.82,127.22,341.54,126.42,340.98,125.21z M328.14,95.45h5.7c3.77,0,5.54-1.36,5.54-4.25
			c0-2.97-1.76-4.33-5.54-4.33h-5.7V95.45z"/>
		<path class="st2" d="M369.14,71.06h10.83c2,0,3.61,1.6,3.61,3.53v49.02c0,2.01-1.6,3.61-3.61,3.61h-10.83
			c-2.01,0-3.61-1.6-3.61-3.61V74.59C365.52,72.67,367.13,71.06,369.14,71.06z"/>
		<path class="st2" d="M439.25,71.06c2.01,0,3.61,1.6,3.61,3.53v29.92c0,16.69-10.35,23.67-25.67,23.67
			c-15.24,0-25.59-6.98-25.59-23.67V74.59c0-1.93,1.6-3.53,3.61-3.53h10.91c1.93,0,3.53,1.6,3.53,3.53v28c0,5.13,2.73,8.1,7.54,8.1
			c4.89,0,7.62-2.97,7.62-8.1v-28c0-1.93,1.6-3.53,3.53-3.53H439.25z"/>
		<path class="st2" d="M494.2,109.33c0,10.03-7.3,18.85-22.62,18.85c-9.55,0-19.57-3.05-23.1-11.95c-0.64-1.6,0.16-3.29,1.77-3.85
			l9.79-2.97c1.2-0.4,2.49,0.08,3.21,1.12c1.28,1.85,4.25,3.13,7.46,3.13c3.13,0,5.54-1.28,5.54-3.37c0-2.81-3.45-2.97-9.15-4.33
			c-10.27-2.49-17.73-6.1-17.73-17.65c0-10.99,9.63-18.29,22.06-18.29c8.74,0,16.77,3.93,19.82,11.63c0.64,1.68-0.24,3.45-1.93,3.85
			l-9.79,2.41c-1.04,0.24-2.25-0.08-2.89-1.04c-1.04-1.36-2.81-2.25-5.13-2.25c-3.21,0-4.89,1.36-4.89,3.29
			c0,2.65,4.17,2.97,8.5,4.17C488.83,95.85,494.2,99.86,494.2,109.33z"/>
	</g>
</g>
</svg>
