<?xml version="1.0" standalone="no"?>
<!DOCTYPE svg PUBLIC "-//W3C//DTD SVG 20010904//EN"
 "http://www.w3.org/TR/2001/REC-SVG-20010904/DTD/svg10.dtd">
<svg version="1.0" xmlns="http://www.w3.org/2000/svg"
 width="492.000000pt" height="492.000000pt" viewBox="0 0 492.000000 492.000000"
 preserveAspectRatio="xMidYMid meet">
<metadata>
Created by potrace 1.14, written by Peter Selinger 2001-2017
</metadata>
<g transform="translate(0.000000,492.000000) scale(0.100000,-0.100000)"
fill="#000000" stroke="none">
<path d="M2210 4909 c-164 -15 -213 -23 -365 -61 -708 -181 -1269 -727 -1469
-1433 -53 -188 -70 -314 -70 -535 -1 -221 3 -276 35 -440 22 -112 82 -302 126
-400 53 -119 180 -347 188 -338 2 2 6 64 10 138 4 74 8 149 10 165 6 63 48
281 57 298 5 10 22 20 39 24 19 4 31 13 33 27 23 125 74 348 95 416 22 69 25
92 17 122 -17 68 12 149 159 443 163 324 307 536 490 721 114 115 191 172 321
236 392 195 853 189 1288 -18 57 -27 60 -27 70 -9 43 75 105 85 196 33 67 -38
202 -172 254 -251 20 -31 42 -55 47 -51 18 11 67 -7 94 -34 32 -32 66 -104 99
-213 62 -201 54 -337 -25 -460 -16 -26 -41 -55 -55 -63 -23 -16 -33 -46 -16
-46 5 0 33 -24 63 -52 93 -91 159 -207 203 -359 44 -153 57 -356 32 -472 -38
-171 -162 -339 -290 -392 -35 -15 -37 -15 -61 9 -29 29 -29 28 -11 114 8 37
17 87 20 111 l6 44 -40 -7 c-33 -5 -88 -31 -151 -71 -12 -7 -18 -35 -23 -103
-12 -162 -31 -241 -158 -632 -41 -126 -66 -188 -120 -292 -16 -32 -27 -58 -24
-58 11 0 104 54 196 115 406 265 707 666 846 1127 29 97 61 244 69 323 4 33 9
69 11 80 6 26 5 343 0 375 -3 14 -7 50 -10 80 -30 269 -148 599 -302 840 -198
310 -499 580 -823 739 -174 86 -426 168 -566 186 -22 2 -51 7 -64 10 -74 15
-324 23 -431 14z"/>
<path d="M2438 4375 c-2 -1 -37 -5 -78 -8 -80 -7 -80 -7 -185 -31 -144 -34
-325 -117 -435 -199 -201 -150 -444 -482 -625 -852 -134 -274 -156 -337 -137
-387 10 -27 7 -46 -18 -133 -37 -127 -87 -343 -95 -415 -4 -30 -8 -57 -10 -60
-7 -12 -19 -196 -19 -305 0 -149 8 -228 33 -328 67 -259 147 -283 277 -84 26
40 50 75 53 79 3 4 7 -86 8 -200 2 -271 22 -382 70 -382 25 0 171 109 218 163
l42 49 8 -64 c4 -34 8 -70 10 -78 3 -16 12 -69 21 -127 13 -82 73 -302 103
-378 36 -89 85 -163 122 -183 21 -11 31 -10 79 12 240 111 456 326 633 629 28
48 55 87 60 87 8 0 5 -33 -13 -140 -19 -110 -21 -146 -11 -173 17 -43 57 -36
195 36 237 124 440 294 563 472 45 65 36 31 -33 -114 -192 -406 -482 -609
-687 -481 -27 17 -50 29 -52 28 -1 -2 -26 -43 -55 -93 -91 -152 -190 -285
-295 -391 -106 -108 -180 -163 -262 -194 l-49 -18 -58 23 c-270 110 -462 372
-531 726 l-17 86 -52 7 c-65 7 -169 60 -221 111 -37 36 -105 126 -105 139 0 2
-13 33 -29 68 -41 88 -79 226 -98 353 -12 78 -9 484 4 528 6 20 8 35 3 32 -5
-3 -11 -24 -15 -48 -4 -23 -9 -55 -12 -72 -24 -150 -24 -470 1 -610 40 -223
107 -386 206 -498 60 -69 200 -137 282 -137 12 0 19 -2 16 -5 -3 -3 1 -36 9
-73 8 -37 16 -76 19 -87 2 -11 13 -48 24 -82 72 -222 214 -409 390 -513 84
-50 142 -64 210 -49 125 27 356 253 507 497 26 42 50 79 53 82 3 3 14 22 25
43 11 21 23 40 26 43 4 2 28 -8 54 -23 158 -88 426 43 595 291 103 151 187
342 254 577 20 69 43 145 52 170 8 24 18 53 20 64 3 11 6 25 8 30 21 82 33
177 35 286 l1 57 72 43 c40 23 96 50 126 59 l53 17 -58 13 c-148 33 -218 88
-253 199 -24 75 -58 118 -115 145 -54 26 -96 67 -117 113 -22 49 -30 118 -17
148 8 20 8 20 8 -1 1 -30 40 -62 97 -79 56 -16 84 -43 167 -156 77 -106 127
-133 242 -130 46 1 52 -2 72 -32 39 -57 56 -149 50 -267 -3 -58 -8 -116 -11
-130 -4 -14 -9 -38 -12 -54 -2 -16 -7 -33 -10 -37 -2 -4 0 -10 5 -13 12 -8
109 72 144 118 84 109 118 227 112 386 -6 191 -36 314 -108 455 -33 66 -61 99
-150 186 -98 97 -106 107 -85 112 33 9 95 63 124 108 57 90 63 221 18 377 -53
186 -112 267 -154 214 -19 -23 -30 -18 -43 21 -13 37 -92 142 -151 202 -102
104 -189 148 -224 113 -19 -19 -14 -45 16 -80 16 -18 39 -49 52 -68 l25 -35
-29 19 c-224 145 -492 247 -716 271 -68 7 -217 14 -222 10z m392 -85 c233 -48
449 -157 615 -313 39 -36 71 -64 72 -63 3 2 -29 115 -42 151 -10 30 26 -14 85
-102 57 -86 102 -192 133 -309 l22 -86 31 66 c17 36 35 76 38 88 6 20 10 15
27 -32 52 -142 58 -254 17 -335 -24 -48 -63 -92 -100 -111 -24 -12 -27 -12
-42 11 -9 13 -16 32 -16 41 0 25 -31 125 -50 164 -27 53 -86 108 -130 121 -81
24 -185 -36 -215 -125 -7 -20 -11 -36 -10 -36 2 0 -1 -15 -6 -32 -11 -38 -11
-221 -1 -288 5 -32 2 -66 -12 -116 l-19 -72 -42 -5 c-59 -6 -99 -38 -128 -100
-109 -231 -30 -597 148 -686 33 -17 71 -25 130 -29 l83 -5 7 -33 c3 -19 1 -43
-5 -53 -14 -27 -66 -35 -121 -21 -24 7 -46 11 -49 9 -3 -2 -13 -42 -22 -89
-18 -88 -39 -128 -75 -141 -33 -12 -83 27 -115 89 -27 53 -27 54 -34 25 -18
-76 -68 -142 -108 -143 -25 0 -82 38 -96 65 -26 49 -46 78 -55 77 -5 -1 -15
-26 -22 -57 -21 -94 -67 -139 -116 -113 -34 18 -49 41 -97 152 l-21 49 -17
-30 c-29 -50 -45 -69 -86 -97 -50 -34 -73 -33 -119 5 -37 30 -117 138 -117
158 0 28 -21 16 -48 -27 -42 -69 -112 -139 -151 -153 -28 -10 -36 -9 -59 8
-38 28 -54 84 -55 196 -1 53 -4 97 -6 97 -2 0 -30 -25 -64 -56 -81 -75 -133
-106 -179 -108 -52 -1 -63 14 -63 85 0 32 -1 59 -3 59 -1 0 -20 -11 -41 -24
-52 -33 -99 -52 -149 -61 -36 -6 -42 -4 -55 17 -38 58 -68 253 -72 463 -4 234
-11 214 117 346 60 63 129 137 152 164 53 61 121 173 112 182 -3 3 -41 -27
-84 -68 -42 -41 -124 -113 -182 -159 -58 -46 -131 -110 -162 -141 -32 -32 -58
-52 -58 -46 1 19 25 117 46 181 23 72 52 93 192 138 104 34 149 66 205 147 37
54 58 91 51 91 -3 0 -40 -36 -82 -79 -79 -81 -95 -90 -194 -105 -47 -7 -161
-50 -205 -77 l-33 -21 10 26 c5 14 28 61 51 103 24 43 54 101 69 128 162 303
372 599 534 753 79 74 114 99 220 157 145 78 350 140 505 152 42 3 77 7 79 8
10 8 201 -9 282 -25z m695 -765 c17 -12 43 -47 59 -76 l28 -54 -28 31 c-49 53
-77 66 -130 60 -87 -11 -105 -44 -108 -201 -2 -95 -5 -116 -26 -153 -13 -23
-26 -40 -28 -37 -3 3 -6 59 -8 125 -4 189 25 279 104 319 44 23 96 18 137 -14z
m231 -435 c47 -41 118 -130 163 -204 78 -131 113 -261 112 -417 -1 -80 -16
-199 -25 -199 -2 0 -3 28 -2 63 0 256 -99 543 -254 735 -51 63 -49 70 6 22z
m-2692 -257 c-77 -162 -106 -381 -52 -391 9 -2 43 33 87 88 40 51 74 90 77 87
2 -2 -2 -33 -10 -68 -19 -84 -27 -155 -27 -259 0 -87 9 -172 26 -240 0 -3 4
-22 8 -42 11 -53 44 -125 62 -132 28 -11 86 4 158 41 39 21 76 40 81 42 5 2 6
-14 4 -35 -11 -89 34 -139 103 -115 44 15 120 73 177 136 l50 54 -1 -107 c-1
-65 4 -126 12 -155 15 -51 58 -97 93 -97 45 0 125 77 184 178 l37 63 43 -86
c54 -111 89 -149 146 -160 50 -10 123 67 150 158 l11 37 27 -77 c33 -95 51
-131 82 -160 75 -70 150 -3 166 147 2 25 5 46 6 47 1 1 12 -19 26 -45 36 -70
76 -118 111 -132 61 -26 117 30 143 143 6 27 7 26 36 -28 36 -69 65 -94 107
-95 68 0 98 72 102 253 l1 28 33 -23 c24 -18 45 -23 90 -23 31 0 57 -3 57 -6
0 -3 -13 -44 -29 -92 -107 -316 -341 -573 -678 -744 -123 -63 -145 -69 -168
-43 -15 16 -17 31 -12 82 4 35 9 74 12 88 7 33 13 66 20 119 10 66 -11 49 -83
-69 -116 -191 -229 -331 -362 -446 -81 -70 -274 -184 -311 -184 -27 0 -89 77
-125 155 -51 110 -94 272 -130 484 -3 18 -7 42 -9 53 -5 26 -18 129 -18 147 0
7 -10 1 -21 -15 -57 -80 -229 -209 -258 -193 -36 19 -54 168 -53 429 l1 169
-54 -82 c-63 -96 -87 -124 -124 -143 -62 -32 -117 39 -159 204 -43 168 -44
407 -4 628 21 115 21 114 66 297 32 126 47 167 58 167 9 0 27 9 41 20 14 10
26 18 27 17 1 -1 -14 -34 -33 -74z m2111 -440 c16 -26 50 -68 75 -93 47 -46
154 -110 183 -110 9 0 18 -4 21 -8 7 -12 -99 6 -142 24 -56 23 -100 61 -137
117 -32 49 -63 137 -59 165 4 27 5 26 18 -10 7 -20 26 -58 41 -85z"/>
<path d="M2543 3599 c-114 -21 -193 -112 -198 -228 -8 -179 162 -303 329 -240
198 73 211 358 21 445 -61 28 -94 33 -152 23z m146 -59 c41 -24 100 -97 102
-129 9 -102 -4 -144 -57 -197 -68 -68 -154 -82 -240 -39 -95 48 -138 156 -102
254 45 119 187 172 297 111z"/>
<path d="M2535 3504 c-22 -7 -41 -14 -42 -14 -2 0 -16 -19 -33 -42 -86 -119
29 -281 171 -239 69 21 110 74 111 145 2 112 -101 187 -207 150z m123 -101 c4
-27 -22 -47 -53 -39 -20 5 -25 13 -25 36 0 37 27 54 55 36 11 -7 21 -22 23
-33z"/>
<path d="M1704 2892 c-82 -45 -133 -119 -134 -194 0 -48 15 -49 77 -4 27 18
75 43 108 54 l60 20 -43 1 c-23 1 -68 -8 -99 -19 -31 -11 -58 -19 -59 -17 -9
9 48 95 88 133 51 47 51 53 2 26z"/>
<path d="M1987 2610 c-63 -67 -111 -159 -125 -237 -14 -81 3 -86 72 -24 72 65
124 98 211 133 49 19 62 27 44 28 -50 0 -158 -40 -223 -84 l-64 -43 19 55 c23
66 59 132 106 190 51 63 23 51 -40 -18z"/>
<path d="M1618 2553 c-49 -52 -93 -134 -116 -219 -23 -83 -17 -106 21 -81 13
8 30 22 38 29 22 22 77 59 133 89 28 16 47 29 42 29 -22 0 -96 -27 -143 -53
-29 -15 -53 -26 -53 -24 0 2 8 28 19 58 23 69 56 134 88 177 33 44 15 41 -29
-5z"/>
<path d="M1343 1443 c-16 -40 -14 -136 4 -154 6 -6 24 9 52 47 23 31 40 58 38
60 -1 2 -20 -10 -40 -27 -40 -33 -38 -35 -41 36 -1 17 2 40 6 53 12 36 -2 25
-19 -15z"/>
<path d="M1781 1316 c-1 -48 31 -118 66 -146 15 -11 28 -18 31 -16 2 3 10 33
17 68 8 35 17 72 21 82 5 13 4 17 -4 13 -6 -4 -18 -29 -28 -55 -9 -26 -20 -51
-24 -55 -10 -11 -49 53 -66 106 l-13 42 0 -39z"/>
<path d="M2720 1227 c0 -15 -1 -30 -2 -34 -1 -5 -4 -22 -8 -39 -4 -18 -5 -37
-1 -42 10 -17 83 20 114 57 35 42 35 62 0 29 -45 -42 -83 -63 -84 -47 -3 70
-19 134 -19 76z"/>
<path d="M2235 1175 c1 -27 -3 -70 -11 -95 -20 -65 -19 -72 14 -64 67 17 125
73 151 149 l11 30 -18 -25 c-34 -49 -76 -91 -103 -106 l-29 -14 4 52 c2 29 -2
69 -9 88 l-13 35 3 -50z"/>
<path d="M1994 920 c-18 -51 -84 -147 -98 -143 -4 2 -9 32 -10 68 -4 78 -16
100 -16 29 -1 -27 -5 -69 -10 -94 -10 -56 -6 -64 29 -45 57 29 112 117 124
198 3 20 4 37 2 37 -1 0 -11 -22 -21 -50z"/>
</g>
</svg>
